ffmpeg started on 2025-05-05 at 10:21:11
Report written to "D:\Convert\FFMetrics\reports\ssim_report-6.txt"
Log level: 32
Command line:
ffmpeg -hide_banner -nostdin -i "G:\\\xc0\xed\xe8\xec\xe5\\\xce\xed\xe3\xee\xe8\xed\xe3\xe8\\!_35_\xcb\xe5\xf2\xee_2024\\JamClub-1\\\xcb\xfe\xe4\xe8 \xef\xee\xe4\xe7\xe5\xec\xe5\xeb\xfc\xff\\JamClub_Dungeon_no_Naka_no_Hito_02_1080p_HEVC.mkv" -i "G:\\\xc0\xed\xe8\xec\xe5\\\xce\xed\xe3\xee\xe8\xed\xe3\xe8\\!_35_\xcb\xe5\xf2\xee_2024\\JamClub-1\\\xcb\xfe\xe4\xe8 \xef\xee\xe4\xe7\xe5\xec\xe5\xeb\xfc\xff\\JamClub_Dungeon_no_Naka_no_Hito_02_1080p.mp4" -lavfi "[0:v]settb=AVTB,setpts=PTS-STARTPTS,format=pix_fmts=yuv420p10,fps=24000/1001,scale=1920:1080:flags=bicubic[main];[1:v]settb=AVTB,setpts=PTS-STARTPTS,format=pix_fmts=yuv420p,fps=24000/1001,scale=1920:1080:flags=bicubic[ref];[main][ref]ssim=eof_action=endall:stats_file='D\\:/Convert/FFMetrics/logs/ssim_logfile-6.txt'" -f null -
Input #0, matroska,webm, from 'G:\Аниме\Онгоинги\!_35_Лето_2024\JamClub-1\Люди подземелья\JamClub_Dungeon_no_Naka_no_Hito_02_1080p_HEVC.mkv':
  Metadata:
    COMPATIBLE_BRANDS: isomiso2avc1mp41
    MAJOR_BRAND     : isom
    MINOR_VERSION   : 512
    ENCODER         : Lavf61.7.100
  Duration: 00:24:51.70, start: -0.021000, bitrate: 1143 kb/s
  Stream #0:0: Video: hevc (Main 10), yuv420p10le(tv, bt709, progressive), 1920x1080 [SAR 1:1 DAR 16:9], 23.98 fps, 23.98 tbr, 1k tbn (default)
      Metadata:
        HANDLER_NAME    : VideoHandler
        VENDOR_ID       : [0][0][0][0]
        ENCODER         : Lavc61.19.100 libx265
        BPS             : 945703
        DURATION        : 00:24:51.656708333
        NUMBER_OF_FRAMES: 35764
        NUMBER_OF_BYTES : 176333046
        _STATISTICS_WRITING_APP: mkvpropedit v66.0.0 ('Josie') 64-bit
        _STATISTICS_WRITING_DATE_UTC: 2025-05-04 12:56:06
        _STATISTICS_TAGS: BPS DURATION NUMBER_OF_FRAMES NUMBER_OF_BYTES
  Stream #0:1(eng): Audio: aac (LC), 48000 Hz, stereo, fltp (default)
      Metadata:
        HANDLER_NAME    : SoundHandler
        VENDOR_ID       : [0][0][0][0]
        ENCODER         : Lavc61.19.100 aac
        BPS             : 193564
        DURATION        : 00:24:51.672000000
        NUMBER_OF_FRAMES: 69923
        NUMBER_OF_BYTES : 36091841
        _STATISTICS_WRITING_APP: mkvpropedit v66.0.0 ('Josie') 64-bit
        _STATISTICS_WRITING_DATE_UTC: 2025-05-04 12:56:06
        _STATISTICS_TAGS: BPS DURATION NUMBER_OF_FRAMES NUMBER_OF_BYTES
Input #1, mov,mp4,m4a,3gp,3g2,mj2, from 'G:\Аниме\Онгоинги\!_35_Лето_2024\JamClub-1\Люди подземелья\JamClub_Dungeon_no_Naka_no_Hito_02_1080p.mp4':
  Metadata:
    major_brand     : isom
    minor_version   : 512
    compatible_brands: isomiso2avc1mp41
    encoder         : Lavf60.16.100
  Duration: 00:24:51.68, start: 0.000000, bitrate: 3550 kb/s
  Stream #1:0[0x1](und): Video: h264 (High) (avc1 / 0x31637661), yuv420p(tv, bt709, progressive), 1920x1080 [SAR 1:1 DAR 16:9], 3351 kb/s, 23.98 fps, 23.98 tbr, 90k tbn (default)
      Metadata:
        handler_name    : VideoHandler
        vendor_id       : [0][0][0][0]
  Stream #1:1[0x2](eng): Audio: aac (LC) (mp4a / 0x6134706D), 48000 Hz, stereo, fltp, 191 kb/s (default)
      Metadata:
        handler_name    : SoundHandler
        vendor_id       : [0][0][0][0]
Stream mapping:
  Stream #0:0 (hevc) -> settb:default
  Stream #1:0 (h264) -> settb:default
  ssim:default -> Stream #0:0 (wrapped_avframe)
  Stream #0:1 -> #0:1 (aac (native) -> pcm_s16le (native))
Output #0, null, to 'pipe:':
  Metadata:
    COMPATIBLE_BRANDS: isomiso2avc1mp41
    MAJOR_BRAND     : isom
    MINOR_VERSION   : 512
    encoder         : Lavf61.7.100
  Stream #0:0: Video: wrapped_avframe, yuv420p10le(tv, bt709, progressive), 1920x1080 [SAR 1:1 DAR 16:9], q=2-31, 200 kb/s, 23.98 fps, 23.98 tbn
      Metadata:
        encoder         : Lavc61.19.100 wrapped_avframe
  Stream #0:1(eng): Audio: pcm_s16le, 48000 Hz, stereo, s16, 1536 kb/s (default)
      Metadata:
        HANDLER_NAME    : SoundHandler
        VENDOR_ID       : [0][0][0][0]
        _STATISTICS_TAGS: BPS DURATION NUMBER_OF_FRAMES NUMBER_OF_BYTES
        BPS             : 193564
        DURATION        : 00:24:51.672000000
        NUMBER_OF_FRAMES: 69923
        NUMBER_OF_BYTES : 36091841
        _STATISTICS_WRITING_APP: mkvpropedit v66.0.0 ('Josie') 64-bit
        _STATISTICS_WRITING_DATE_UTC: 2025-05-04 12:56:06
        encoder         : Lavc61.19.100 pcm_s16le
frame=  119 fps=0.0 q=-0.0 size=N/A time=00:00:04.96 bitrate=N/A speed=9.47x    frame=  280 fps=272 q=-0.0 size=N/A time=00:00:11.67 bitrate=N/A speed=11.3x    frame=  484 fps=311 q=-0.0 size=N/A time=00:00:20.18 bitrate=N/A speed=  13x    frame=  698 fps=338 q=-0.0 size=N/A time=00:00:29.11 bitrate=N/A speed=14.1x    frame=  919 fps=355 q=-0.0 size=N/A time=00:00:38.32 bitrate=N/A speed=14.8x    frame= 1142 fps=369 q=-0.0 size=N/A time=00:00:47.63 bitrate=N/A speed=15.4x    frame= 1351 fps=373 q=-0.0 size=N/A time=00:00:56.34 bitrate=N/A speed=15.6x    frame= 1578 fps=382 q=-0.0 size=N/A time=00:01:05.81 bitrate=N/A speed=15.9x    frame= 1838 fps=395 q=-0.0 size=N/A time=00:01:16.65 bitrate=N/A speed=16.5x    frame= 2063 fps=400 q=-0.0 size=N/A time=00:01:26.04 bitrate=N/A speed=16.7x    frame= 2292 fps=404 q=-0.0 size=N/A time=00:01:35.59 bitrate=N/A speed=16.8x    frame= 2514 fps=406 q=-0.0 size=N/A time=00:01:44.85 bitrate=N/A speed=16.9x    frame= 2742 fps=409 q=-0.0 size=N/A time=00:01:54.36 bitrate=N/A speed=  17x    frame= 2947 fps=408 q=-0.0 size=N/A time=00:02:02.91 bitrate=N/A speed=  17x    frame= 3125 fps=404 q=-0.0 size=N/A time=00:02:10.33 bitrate=N/A speed=16.8x    frame= 3352 fps=406 q=-0.0 size=N/A time=00:02:19.80 bitrate=N/A speed=16.9x    frame= 3564 fps=406 q=-0.0 size=N/A time=00:02:28.64 bitrate=N/A speed=16.9x    frame= 3778 fps=407 q=-0.0 size=N/A time=00:02:37.57 bitrate=N/A speed=  17x    frame= 3967 fps=405 q=-0.0 size=N/A time=00:02:45.45 bitrate=N/A speed=16.9x    frame= 4134 fps=401 q=-0.0 size=N/A time=00:02:52.42 bitrate=N/A speed=16.7x    frame= 4317 fps=398 q=-0.0 size=N/A time=00:03:00.05 bitrate=N/A speed=16.6x    frame= 4548 fps=401 q=-0.0 size=N/A time=00:03:09.68 bitrate=N/A speed=16.7x    frame= 4791 fps=404 q=-0.0 size=N/A time=00:03:19.82 bitrate=N/A speed=16.8x    frame= 5058 fps=409 q=-0.0 size=N/A time=00:03:30.96 bitrate=N/A speed=  17x    frame= 5337 fps=414 q=-0.0 size=N/A time=00:03:42.59 bitrate=N/A speed=17.3x    frame= 5608 fps=418 q=-0.0 size=N/A time=00:03:53.90 bitrate=N/A speed=17.4x    frame= 5875 fps=422 q=-0.0 size=N/A time=00:04:05.03 bitrate=N/A speed=17.6x    frame= 6135 fps=425 q=-0.0 size=N/A time=00:04:15.88 bitrate=N/A speed=17.7x    frame= 6400 fps=428 q=-0.0 size=N/A time=00:04:26.93 bitrate=N/A speed=17.8x    frame= 6670 fps=431 q=-0.0 size=N/A time=00:04:38.19 bitrate=N/A speed=  18x    frame= 6949 fps=435 q=-0.0 size=N/A time=00:04:49.83 bitrate=N/A speed=18.1x    frame= 7213 fps=437 q=-0.0 size=N/A time=00:05:00.84 bitrate=N/A speed=18.2x    frame= 7471 fps=439 q=-0.0 size=N/A time=00:05:11.60 bitrate=N/A speed=18.3x    frame= 7743 fps=442 q=-0.0 size=N/A time=00:05:22.94 bitrate=N/A speed=18.4x    frame= 7978 fps=442 q=-0.0 size=N/A time=00:05:32.74 bitrate=N/A speed=18.4x    frame= 8217 fps=443 q=-0.0 size=N/A time=00:05:42.71 bitrate=N/A speed=18.5x    frame= 8464 fps=444 q=-0.0 size=N/A time=00:05:53.01 bitrate=N/A speed=18.5x    frame= 8722 fps=445 q=-0.0 size=N/A time=00:06:03.78 bitrate=N/A speed=18.6x    frame= 8976 fps=446 q=-0.0 size=N/A time=00:06:14.37 bitrate=N/A speed=18.6x    frame= 9218 fps=447 q=-0.0 size=N/A time=00:06:24.46 bitrate=N/A speed=18.6x    frame= 9463 fps=448 q=-0.0 size=N/A time=00:06:34.68 bitrate=N/A speed=18.7x    frame= 9721 fps=449 q=-0.0 size=N/A time=00:06:45.44 bitrate=N/A speed=18.7x    frame= 9967 fps=449 q=-0.0 size=N/A time=00:06:55.70 bitrate=N/A speed=18.7x    frame=10227 fps=451 q=-0.0 size=N/A time=00:07:06.55 bitrate=N/A speed=18.8x    frame=10485 fps=452 q=-0.0 size=N/A time=00:07:17.31 bitrate=N/A speed=18.8x    frame=10739 fps=453 q=-0.0 size=N/A time=00:07:27.90 bitrate=N/A speed=18.9x    frame=11013 fps=454 q=-0.0 size=N/A time=00:07:39.33 bitrate=N/A speed=  19x    frame=11270 fps=455 q=-0.0 size=N/A time=00:07:50.05 bitrate=N/A speed=  19x    frame=11538 fps=456 q=-0.0 size=N/A time=00:08:01.23 bitrate=N/A speed=  19x    frame=11780 fps=457 q=-0.0 size=N/A time=00:08:11.32 bitrate=N/A speed=19.1x    frame=12029 fps=457 q=-0.0 size=N/A time=00:08:21.70 bitrate=N/A speed=19.1x    frame=12301 fps=459 q=-0.0 size=N/A time=00:08:33.05 bitrate=N/A speed=19.1x    frame=12576 fps=460 q=-0.0 size=N/A time=00:08:44.52 bitrate=N/A speed=19.2x    frame=12807 fps=460 q=-0.0 size=N/A time=00:08:54.15 bitrate=N/A speed=19.2x    frame=13071 fps=461 q=-0.0 size=N/A time=00:09:05.16 bitrate=N/A speed=19.2x    frame=13344 fps=462 q=-0.0 size=N/A time=00:09:16.55 bitrate=N/A speed=19.3x    frame=13612 fps=463 q=-0.0 size=N/A time=00:09:27.73 bitrate=N/A speed=19.3x    frame=13852 fps=463 q=-0.0 size=N/A time=00:09:37.74 bitrate=N/A speed=19.3x    frame=14091 fps=463 q=-0.0 size=N/A time=00:09:47.71 bitrate=N/A speed=19.3x    frame=14363 fps=464 q=-0.0 size=N/A time=00:09:59.05 bitrate=N/A speed=19.3x    frame=14634 fps=465 q=-0.0 size=N/A time=00:10:10.35 bitrate=N/A speed=19.4x    frame=14896 fps=466 q=-0.0 size=N/A time=00:10:21.28 bitrate=N/A speed=19.4x    frame=15153 fps=466 q=-0.0 size=N/A time=00:10:32.00 bitrate=N/A speed=19.4x    frame=15416 fps=467 q=-0.0 size=N/A time=00:10:42.97 bitrate=N/A speed=19.5x    frame=15669 fps=467 q=-0.0 size=N/A time=00:10:53.52 bitrate=N/A speed=19.5x    frame=15937 fps=468 q=-0.0 size=N/A time=00:11:04.70 bitrate=N/A speed=19.5x    frame=16161 fps=468 q=-0.0 size=N/A time=00:11:14.04 bitrate=N/A speed=19.5x    frame=16431 fps=468 q=-0.0 size=N/A time=00:11:25.30 bitrate=N/A speed=19.5x    frame=16705 fps=469 q=-0.0 size=N/A time=00:11:36.73 bitrate=N/A speed=19.6x    frame=16974 fps=470 q=-0.0 size=N/A time=00:11:47.95 bitrate=N/A speed=19.6x    frame=17233 fps=470 q=-0.0 size=N/A time=00:11:58.75 bitrate=N/A speed=19.6x    frame=17463 fps=470 q=-0.0 size=N/A time=00:12:08.35 bitrate=N/A speed=19.6x    frame=17715 fps=470 q=-0.0 size=N/A time=00:12:18.86 bitrate=N/A speed=19.6x    frame=17970 fps=471 q=-0.0 size=N/A time=00:12:29.49 bitrate=N/A speed=19.6x    frame=18229 fps=471 q=-0.0 size=N/A time=00:12:40.30 bitrate=N/A speed=19.6x    frame=18490 fps=472 q=-0.0 size=N/A time=00:12:51.18 bitrate=N/A speed=19.7x    frame=18724 fps=471 q=-0.0 size=N/A time=00:13:00.94 bitrate=N/A speed=19.7x    frame=18988 fps=472 q=-0.0 size=N/A time=00:13:11.95 bitrate=N/A speed=19.7x    frame=19238 fps=472 q=-0.0 size=N/A time=00:13:22.38 bitrate=N/A speed=19.7x    frame=19479 fps=472 q=-0.0 size=N/A time=00:13:32.43 bitrate=N/A speed=19.7x    frame=19726 fps=472 q=-0.0 size=N/A time=00:13:42.73 bitrate=N/A speed=19.7x    frame=20002 fps=473 q=-0.0 size=N/A time=00:13:54.25 bitrate=N/A speed=19.7x    frame=20271 fps=473 q=-0.0 size=N/A time=00:14:05.46 bitrate=N/A speed=19.7x    frame=20549 fps=474 q=-0.0 size=N/A time=00:14:17.06 bitrate=N/A speed=19.8x    frame=20809 fps=475 q=-0.0 size=N/A time=00:14:27.90 bitrate=N/A speed=19.8x    frame=21046 fps=474 q=-0.0 size=N/A time=00:14:37.79 bitrate=N/A speed=19.8x    frame=21289 fps=474 q=-0.0 size=N/A time=00:14:47.92 bitrate=N/A speed=19.8x    frame=21527 fps=474 q=-0.0 size=N/A time=00:14:57.85 bitrate=N/A speed=19.8x    frame=21755 fps=474 q=-0.0 size=N/A time=00:15:07.36 bitrate=N/A speed=19.8x    frame=21957 fps=473 q=-0.0 size=N/A time=00:15:15.78 bitrate=N/A speed=19.7x    frame=22209 fps=473 q=-0.0 size=N/A time=00:15:26.30 bitrate=N/A speed=19.7x    frame=22462 fps=473 q=-0.0 size=N/A time=00:15:36.85 bitrate=N/A speed=19.7x    frame=22724 fps=474 q=-0.0 size=N/A time=00:15:47.78 bitrate=N/A speed=19.8x    frame=22991 fps=474 q=-0.0 size=N/A time=00:15:58.91 bitrate=N/A speed=19.8x    frame=23267 fps=475 q=-0.0 size=N/A time=00:16:10.42 bitrate=N/A speed=19.8x    frame=23533 fps=475 q=-0.0 size=N/A time=00:16:21.52 bitrate=N/A speed=19.8x    frame=23791 fps=475 q=-0.0 size=N/A time=00:16:32.28 bitrate=N/A speed=19.8x    frame=24048 fps=476 q=-0.0 size=N/A time=00:16:43.00 bitrate=N/A speed=19.8x    frame=24310 fps=476 q=-0.0 size=N/A time=00:16:53.92 bitrate=N/A speed=19.9x    frame=24589 fps=477 q=-0.0 size=N/A time=00:17:05.56 bitrate=N/A speed=19.9x    frame=24853 fps=477 q=-0.0 size=N/A time=00:17:16.57 bitrate=N/A speed=19.9x    frame=25118 fps=477 q=-0.0 size=N/A time=00:17:27.62 bitrate=N/A speed=19.9x    frame=25387 fps=478 q=-0.0 size=N/A time=00:17:38.84 bitrate=N/A speed=19.9x    frame=25669 fps=478 q=-0.0 size=N/A time=00:17:50.61 bitrate=N/A speed=  20x    frame=25916 fps=479 q=-0.0 size=N/A time=00:18:00.91 bitrate=N/A speed=  20x    frame=26182 fps=479 q=-0.0 size=N/A time=00:18:12.00 bitrate=N/A speed=  20x    frame=26439 fps=479 q=-0.0 size=N/A time=00:18:22.72 bitrate=N/A speed=  20x    frame=26694 fps=479 q=-0.0 size=N/A time=00:18:33.36 bitrate=N/A speed=  20x    frame=26936 fps=479 q=-0.0 size=N/A time=00:18:43.45 bitrate=N/A speed=  20x    frame=27196 fps=479 q=-0.0 size=N/A time=00:18:54.29 bitrate=N/A speed=  20x    frame=27459 fps=480 q=-0.0 size=N/A time=00:19:05.26 bitrate=N/A speed=  20x    frame=27694 fps=479 q=-0.0 size=N/A time=00:19:15.07 bitrate=N/A speed=  20x    frame=27947 fps=480 q=-0.0 size=N/A time=00:19:25.62 bitrate=N/A speed=  20x    frame=28153 fps=479 q=-0.0 size=N/A time=00:19:34.21 bitrate=N/A speed=  20x    frame=28383 fps=478 q=-0.0 size=N/A time=00:19:43.80 bitrate=N/A speed=  20x    frame=28628 fps=478 q=-0.0 size=N/A time=00:19:54.02 bitrate=N/A speed=  20x    frame=28899 fps=479 q=-0.0 size=N/A time=00:20:05.32 bitrate=N/A speed=  20x    frame=29142 fps=479 q=-0.0 size=N/A time=00:20:15.46 bitrate=N/A speed=  20x    frame=29380 fps=479 q=-0.0 size=N/A time=00:20:25.39 bitrate=N/A speed=  20x    frame=29657 fps=479 q=-0.0 size=N/A time=00:20:36.94 bitrate=N/A speed=  20x    frame=29922 fps=479 q=-0.0 size=N/A time=00:20:47.99 bitrate=N/A speed=  20x    frame=30177 fps=480 q=-0.0 size=N/A time=00:20:58.63 bitrate=N/A speed=  20x    frame=30423 fps=479 q=-0.0 size=N/A time=00:21:08.89 bitrate=N/A speed=  20x    frame=30689 fps=480 q=-0.0 size=N/A time=00:21:20.02 bitrate=N/A speed=  20x    frame=30921 fps=480 q=-0.0 size=N/A time=00:21:29.66 bitrate=N/A speed=  20x    frame=31196 fps=480 q=-0.0 size=N/A time=00:21:41.13 bitrate=N/A speed=  20x    frame=31459 fps=480 q=-0.0 size=N/A time=00:21:52.10 bitrate=N/A speed=  20x    frame=31707 fps=480 q=-0.0 size=N/A time=00:22:02.44 bitrate=N/A speed=  20x    frame=31959 fps=480 q=-0.0 size=N/A time=00:22:12.95 bitrate=N/A speed=  20x    frame=32234 fps=481 q=-0.0 size=N/A time=00:22:24.42 bitrate=N/A speed=  20x    frame=32507 fps=481 q=-0.0 size=N/A time=00:22:35.81 bitrate=N/A speed=20.1x    frame=32787 fps=481 q=-0.0 size=N/A time=00:22:47.49 bitrate=N/A speed=20.1x    frame=33055 fps=482 q=-0.0 size=N/A time=00:22:58.66 bitrate=N/A speed=20.1x    frame=33304 fps=482 q=-0.0 size=N/A time=00:23:09.05 bitrate=N/A speed=20.1x    frame=33468 fps=481 q=-0.0 size=N/A time=00:23:15.89 bitrate=N/A speed=  20x    frame=33634 fps=479 q=-0.0 size=N/A time=00:23:22.81 bitrate=N/A speed=  20x    frame=33802 fps=478 q=-0.0 size=N/A time=00:23:29.82 bitrate=N/A speed=19.9x    frame=33975 fps=477 q=-0.0 size=N/A time=00:23:37.04 bitrate=N/A speed=19.9x    frame=34143 fps=476 q=-0.0 size=N/A time=00:23:44.04 bitrate=N/A speed=19.9x    frame=34309 fps=475 q=-0.0 size=N/A time=00:23:50.97 bitrate=N/A speed=19.8x    frame=34488 fps=474 q=-0.0 size=N/A time=00:23:58.43 bitrate=N/A speed=19.8x    frame=34628 fps=473 q=-0.0 size=N/A time=00:24:04.27 bitrate=N/A speed=19.7x    frame=34804 fps=472 q=-0.0 size=N/A time=00:24:11.61 bitrate=N/A speed=19.7x    frame=35004 fps=471 q=-0.0 size=N/A time=00:24:19.95 bitrate=N/A speed=19.7x    frame=35240 fps=471 q=-0.0 size=N/A time=00:24:29.80 bitrate=N/A speed=19.7x    frame=35447 fps=471 q=-0.0 size=N/A time=00:24:38.43 bitrate=N/A speed=19.6x    frame=35676 fps=470 q=-0.0 size=N/A time=00:24:47.98 bitrate=N/A speed=19.6x    [Parsed_ssim_10 @ 000002a0fb892740] SSIM Y:0.995222 (23.207451) U:0.995305 (23.283959) V:0.995387 (23.360037) All:0.995263 (23.245244)
[out#0/null @ 000002a0efd30f40] video:15367KiB audio:279692KiB subtitle:0KiB other streams:0KiB global headers:0KiB muxing overhead: unknown
frame=35764 fps=471 q=-0.0 Lsize=N/A time=00:24:51.65 bitrate=N/A speed=19.6x    
